<svg aria-hidden="true" style="position: absolute; width: 0; height: 0; overflow: hidden;" version="1.1" xmlns="http://www.w3.org/2000/svg" xmlns:xlink="http://www.w3.org/1999/xlink">
<defs>
<symbol id="icon-calendar" viewBox="0 0 32 32">
<path stroke-linejoin="round" stroke-linecap="round" stroke-miterlimit="4" stroke-width="1.7778" d="M10.074 1.185v5.926M21.926 1.185v5.926M2.667 13.037h26.667M10.074 18.964h0.015M16 18.964h0.015M21.926 18.964h0.014M10.074 24.889h0.015M16 24.889h0.015M21.926 24.889h0.014M5.629 4.148h20.741c1.636 0 2.963 1.326 2.963 2.963v0 20.741c0 1.636-1.326 2.963-2.963 2.963v0h-20.741c-1.636 0-2.963-1.326-2.963-2.963 0-0 0-0.001 0-0.001v0-20.74c0-1.636 1.326-2.963 2.963-2.963v0z"></path>
</symbol>
<symbol id="icon-circle-arrow" viewBox="0 0 32 32">
<path stroke-linejoin="round" stroke-linecap="round" stroke-miterlimit="4" stroke-width="1.6" d="M16 30.666c-8.1 0-14.666-6.566-14.666-14.666s6.566-14.666 14.666-14.666c8.1 0 14.666 6.566 14.666 14.666v0M30.666 30.666l-14.666-14.666M30.666 30.666v-8.8M30.666 30.666h-8.8"></path>
</symbol>
<symbol id="icon-instagram" viewBox="0 0 32 32">
<path d="M16 2.883c4.272 0 4.777 0.016 6.465 0.093 1.56 0.071 2.407 0.331 2.971 0.551 0.746 0.29 1.28 0.638 1.84 1.197 0.56 0.56 0.906 1.094 1.197 1.84 0.218 0.565 0.48 1.411 0.551 2.971 0.077 1.687 0.093 2.193 0.093 6.465s-0.016 4.778-0.093 6.465c-0.072 1.56-0.331 2.408-0.551 2.971-0.271 0.722-0.679 1.336-1.197 1.839l-0.001 0.001c-0.56 0.56-1.093 0.906-1.84 1.197-0.563 0.218-1.41 0.48-2.97 0.551-1.687 0.077-2.193 0.093-6.465 0.093s-4.778-0.016-6.465-0.093c-1.56-0.071-2.407-0.331-2.971-0.551-0.722-0.271-1.336-0.678-1.839-1.195l-0.001-0.001c-0.518-0.504-0.926-1.118-1.185-1.806l-0.011-0.034c-0.219-0.565-0.48-1.411-0.551-2.971-0.077-1.687-0.093-2.193-0.093-6.465s0.016-4.777 0.093-6.465c0.071-1.56 0.331-2.407 0.551-2.971 0.271-0.722 0.678-1.336 1.195-1.839l0.001-0.001c0.56-0.56 1.094-0.906 1.84-1.197 0.565-0.218 1.411-0.48 2.971-0.551 1.687-0.077 2.193-0.093 6.465-0.093zM16 0c-4.345 0-4.89 0.018-6.597 0.096-1.703 0.078-2.866 0.35-3.885 0.744-1.109 0.424-2.054 1.052-2.832 1.845l-0.001 0.001c-0.793 0.78-1.421 1.725-1.826 2.781l-0.018 0.054c-0.395 1.017-0.666 2.181-0.743 3.883-0.081 1.705-0.098 2.251-0.098 6.597s0.018 4.89 0.096 6.597c0.078 1.703 0.349 2.866 0.744 3.885 0.409 1.051 0.955 1.944 1.846 2.834 0.78 0.793 1.725 1.421 2.781 1.826l0.054 0.018c1.017 0.395 2.181 0.666 3.883 0.743 1.705 0.080 2.251 0.097 6.597 0.097s4.89-0.018 6.597-0.096c1.703-0.078 2.866-0.349 3.885-0.744 1.109-0.424 2.055-1.052 2.833-1.845l0.001-0.001c0.793-0.78 1.421-1.725 1.826-2.781l0.018-0.054c0.395-1.017 0.666-2.181 0.743-3.883 0.079-1.706 0.097-2.251 0.097-6.597s-0.018-4.89-0.096-6.597c-0.078-1.703-0.349-2.866-0.744-3.885-0.424-1.109-1.052-2.055-1.845-2.833l-0.001-0.001c-0.78-0.793-1.725-1.42-2.781-1.825l-0.054-0.018c-1.017-0.395-2.181-0.666-3.883-0.743-1.705-0.081-2.251-0.098-6.597-0.098zM16 7.783c-4.538 0-8.217 3.679-8.217 8.217s3.679 8.217 8.217 8.217v0c4.538 0 8.217-3.679 8.217-8.217s-3.679-8.217-8.217-8.217v0zM16 21.334c-2.946 0-5.334-2.388-5.334-5.334s2.388-5.334 5.334-5.334v0c2.946 0 5.334 2.388 5.334 5.334s-2.388 5.334-5.334 5.334v0zM26.461 7.459c0 1.060-0.86 1.92-1.92 1.92s-1.92-0.86-1.92-1.92v0c0-1.060 0.86-1.92 1.92-1.92s1.92 0.86 1.92 1.92v0z"></path>
</symbol>
<symbol id="icon-mail" viewBox="0 0 32 32">
<path stroke-linejoin="round" stroke-linecap="round" stroke-miterlimit="4" stroke-width="2.1333" d="M30.222 8.889l-12.757 8.107c-0.416 0.264-0.922 0.421-1.465 0.421s-1.049-0.157-1.476-0.428l0.011 0.007-12.757-8.107M4.622 4.622h22.756c1.571 0.001 2.844 1.274 2.844 2.845v0 17.067c-0.001 1.57-1.273 2.843-2.844 2.844h-22.756c-1.57-0.001-2.843-1.273-2.844-2.844v-17.067c0-1.571 1.273-2.844 2.844-2.845h0z"></path>
</symbol>
<symbol id="icon-phone" viewBox="0 0 32 32">
<path stroke-linejoin="round" stroke-linecap="round" stroke-miterlimit="4" stroke-width="2.1333" d="M16 24.533h0.014M8.889 1.778h14.223c1.571 0.001 2.844 1.274 2.844 2.845v0 22.755c0 1.571-1.273 2.844-2.844 2.845h-14.223c-1.571-0.001-2.844-1.274-2.844-2.845v0-22.755c0-1.571 1.273-2.844 2.844-2.845h0z"></path>
</symbol>
<symbol id="icon-star" viewBox="0 0 32 32">
<path d="M16 1.904l4.709 9.541 10.53 1.538-7.621 7.422 1.799 10.485-9.417-4.953-9.417 4.953 1.799-10.485-7.621-7.422 10.53-1.538 4.709-9.541z"></path>
</symbol>
<symbol id="icon-telegram" viewBox="0 0 32 32">
<path d="M31.631 1.12l-5.003 29.194s-0.7 2.025-2.624 1.054l-11.545-10.245-0.053-0.030c2.092-2.157 6.715-6.968 11.332-11.784l2.847-2.99c0.818-0.884 0.31-1.409-0.64-0.742l-17.86 13.129-6.89-2.683s-1.084-0.447-1.189-1.418c-0.106-0.972 1.225-1.498 1.225-1.498l28.090-12.754s2.309-1.174 2.309 0.768z"></path>
</symbol>
<symbol id="icon-arrow" viewBox="0 0 32 32">
<path stroke-linejoin="round" stroke-linecap="round" stroke-miterlimit="4" stroke-width="4.5714" d="M22.857 2.286l-13.714 13.714 13.714 13.714"></path>
</symbol>
<symbol id="icon-arrow-right-fill" viewBox="0 0 32 32">
<path stroke-linejoin="round" stroke-linecap="butt" stroke-miterlimit="4" stroke-width="1.7778" d="M30.814 15.481l-29.628-11.481 6.732 11.481-6.732 11.483 29.628-11.483z"></path>
</symbol>
</defs>
</svg>
