<svg xmlns="http://www.w3.org/2000/svg" width="28" height="28" fill="none"><path fill="#266DA5" d="M14 2.523c3.738 0 4.18.014 5.657.081 1.365.062 2.106.29 2.6.482.653.254 1.12.558 1.61 1.047.49.49.793.957 1.047 1.61.191.494.42 1.235.482 2.6.067 1.476.081 1.919.081 5.657s-.014 4.181-.081 5.657c-.063 1.365-.29 2.107-.482 2.6a4.337 4.337 0 0 1-1.048 1.61c-.49.49-.956.793-1.61 1.047-.493.191-1.234.42-2.599.482-1.476.067-1.919.081-5.657.081s-4.181-.014-5.657-.081c-1.365-.062-2.106-.29-2.6-.482a4.337 4.337 0 0 1-1.61-1.047 4.338 4.338 0 0 1-1.047-1.61c-.192-.494-.42-1.235-.482-2.6-.067-1.476-.081-1.919-.081-5.657s.014-4.18.081-5.657c.062-1.365.29-2.106.482-2.6a4.337 4.337 0 0 1 1.047-1.61c.49-.49.957-.793 1.61-1.047.494-.191 1.235-.42 2.6-.482 1.476-.067 1.919-.081 5.657-.081ZM14 0c-3.802 0-4.279.016-5.772.084C6.738.152 5.72.39 4.829.735A6.862 6.862 0 0 0 2.35 2.35 6.862 6.862 0 0 0 .736 4.83c-.346.89-.583 1.908-.65 3.398C.015 9.72 0 10.198 0 14c0 3.802.016 4.279.084 5.772.068 1.49.305 2.508.651 3.399.358.92.836 1.701 1.615 2.48a6.861 6.861 0 0 0 2.48 1.614c.89.346 1.908.583 3.398.65C9.72 27.985 10.198 28 14 28c3.802 0 4.279-.016 5.772-.084 1.49-.068 2.508-.305 3.399-.651a6.86 6.86 0 0 0 2.48-1.615 6.863 6.863 0 0 0 1.614-2.48c.346-.89.583-1.908.65-3.398.069-1.493.085-1.97.085-5.772 0-3.802-.016-4.279-.084-5.772-.068-1.49-.305-2.508-.651-3.399a6.863 6.863 0 0 0-1.615-2.48A6.862 6.862 0 0 0 23.17.736c-.89-.346-1.908-.583-3.398-.65C18.28.015 17.802 0 14 0Zm0 6.81a7.19 7.19 0 1 0 0 14.38 7.19 7.19 0 0 0 0-14.38Zm0 11.857a4.667 4.667 0 1 1 0-9.334 4.667 4.667 0 0 1 0 9.334Zm9.153-12.14a1.68 1.68 0 1 1-3.36 0 1.68 1.68 0 0 1 3.36 0Z"/></svg>