<svg xmlns="http://www.w3.org/2000/svg" width="83" height="84" fill="none"><path stroke="#000" stroke-linecap="round" stroke-linejoin="round" stroke-width="3" d="m40.326 81.997-.16-38.32m0 0-.169-39.332a1.339 1.339 0 0 0-1.339-1.333H18.904c-.74 0-1.34.6-1.34 1.339v23.71c0 .45.227.87.603 1.119l22 14.496Zm5.181-39.159 3.682.335 2.2.314c.095.014.19.038.28.072l3.88 1.455 4.519 2.175 3.012 2.008 2.922 2.435c.06.05.117.106.167.166l2.528 3c.05.06.093.122.132.188l2.285 3.917 1.172 2.678.836 2.51M78.15 46.688l-.162 3.248a1.33 1.33 0 0 1-.024.196l-.65 3.25-1.309 4.252c-.02.066-.045.13-.075.191l-2.751 5.663a1.342 1.342 0 0 1-.115.194l-4.036 5.65a1.345 1.345 0 0 1-.187.21l-3.745 3.419-4.918 3.606a1.33 1.33 0 0 1-.218.13l-6.15 2.913c-.063.03-.128.055-.195.074l-5.59 1.644-4.25.654c-.068.01-.136.015-.204.015h-3.245"/><path stroke="#000" stroke-linecap="round" stroke-linejoin="round" stroke-width="3" d="m40.326 81.997-6.192-.502-5.927-1.317a1.302 1.302 0 0 1-.192-.058l-4.982-1.928a1.375 1.375 0 0 1-.215-.106l-5.822-3.558a1.367 1.367 0 0 1-.189-.139l-4.177-3.695a1.339 1.339 0 0 1-.158-.166l-2.606-3.257-2.343-3.514-1.841-3.681-1.841-5.355-1.142-5.385a1.336 1.336 0 0 1-.03-.278v-6.051l.503-3.85.669-2.844.837-2.175"/><path stroke="#000" stroke-linecap="round" stroke-linejoin="round" stroke-width="3" d="M81.33 20.416 65.265 30.623 48.193 41.502 30.619 52.545l-10.85 6.622a1.339 1.339 0 0 1-2.037-1.142V35.142"/><path stroke="#000" stroke-linecap="round" stroke-linejoin="round" stroke-width="3" d="M71.289 26.775V49.46c0 .462-.238.891-.63 1.136L31.623 74.969"/><path fill="#08DBEC" stroke="#000" stroke-width="3" d="M12.544 23.762a4.017 4.017 0 1 1-8.033 0 4.017 4.017 0 0 1 8.033 0Z"/><path fill="#0C0C0C" d="M52.042 4.686a4.686 4.686 0 1 1-9.372-.001 4.686 4.686 0 0 1 9.372 0Z"/><path fill="#2C8981" d="m19 34.5 18.723 11.877-18.06 11.087c-.446.275-.663.56-.663.036v-23Z"/><path fill="#F6A773" d="m40.828 46.856 18.745 9.873-18.745 11.714V46.856Z"/><path fill="#E33B52" d="M40.828 46.856 60.243 34.64l-.67 22.089-18.745-9.873Z"/><path fill="#B23766" d="m60.243 34.64 10.376-6.694v21.922l-11.046 6.86.67-22.088Z"/><path fill="#024071" d="M18.234 4.016c0-.185.15-.334.335-.334H38.99c.184 0 .334.148.335.331l.327 38.029a.335.335 0 0 1-.52.281L18.384 28.547a.334.334 0 0 1-.15-.278V4.016Z"/></svg>